<svg height="16" viewBox="0 0 16 16" width="16" xmlns="http://www.w3.org/2000/svg"><path d="m15.6521722 3.35190622c-.2318829-.2346079-.499438-.35190622-.8026722-.35190622-.3032375 0-.5707926.11729832-.802679.35190622l-6.04681929 6.65689088-6.04682445-6.65689088c-.23188532-.2346079-.4994411-.35190622-.80267559-.35190622-.30323448 0-.57079027.11729832-.80267558.35190622-.23188521.25415325-.34782609.54740468-.34782609.87976181 0 .33236089.11594088.62561232.34782609.87976932l6.84949661 7.50733095c.12486293.1368531.26309951.2346038.41471658.2932551.15161707.0586514.2809356.0879766.38796243.0879766.10702341 0 .23634194-.0293252.38795901-.0879766.15161707-.0586513.28985365-.156402.41471315-.2932551l6.84949833-7.50733095c.2318863-.254157.3478278-.54740843.3478278-.87976932 0-.33235713-.1159415-.62560856-.3478278-.87976181z" fill-rule="evenodd"/></svg>