<svg height="16" viewBox="0 0 16 16" width="16" xmlns="http://www.w3.org/2000/svg"><path d="m13.3706062 6.54313054h-8.00851917v-2.18104351c0-.39758678.07383705-.77244928.22151114-1.12459838.14767628-.35215129.36918742-.65317673.66453779-.90308942.24991269-.29535037.55093813-.51686151.90308724-.66453561.35215128-.14767627.72701378-.22151332 1.12460274-.22151332.69293715 0 1.30351156.21582952 1.83173416.64749729.5282247.43166777.8604892.9939626.9968045 1.68690194.0454398.1817529.1590351.33226671.340788.45154362.1817551.1192769.363508.16187487.5452609.12779388.1817551-.03407881.3322689-.13347332.4515458-.29818791.1192769-.16471458.1618749-.35498664.1277961-.57082053-.1135975-.51118425-.3067093-.98260372-.5793419-1.41426931-.2612716-.42030889-.5850169-.78665223-.9712449-1.09904309-.3862279-.31239087-.8122097-.55378004-1.27795623-.72417406-.46574439-.17039403-.95420217-.25559213-1.46538643-.25559213-.57934404 0-1.13311972.10791585-1.66134228.32374974-.52822475.21583388-.99112288.5452587-1.38871185.98828534-.44302665.39758897-.77245146.8604871-.98828534 1.38871185-.21583389.52822256-.32374756 1.08199823-.32374756 1.6613401v2.18104351h-.7326954c-.61342154 0-1.13027825.21015227-1.55058562.63045899-.42030737.42030671-.63045789.93716386-.63045789 1.55058453v5.09478244c0 .6134215.21015052 1.1302782.63045789 1.5505856s.93716408.6304579 1.55058562.6304579h10.18956269c.6134207 0 1.1302778-.2101505 1.5505845-.6304579.4203089-.4203074.630459-.9371641.630459-1.5505856v-5.09478244c0-.61342067-.2101501-1.13027782-.630459-1.55058453-.4203067-.42030672-.9371638-.63045899-1.5505845-.63045899zm.7156549 7.27582596c0 .2158334-.0653179.3890657-.1959537.5197017-.1306358.1306362-.3038673.1959532-.5197012.1959532h-10.18956269c-.21583344 0-.38906566-.065317-.51970166-.1959532-.13063622-.130636-.19595324-.3038683-.19595324-.5197017v-5.09478244c0-.2158317.06531702-.39190517.19595324-.52822039.130636-.13631522.30386822-.20447283.51970166-.20447283h10.18956269c.2158339 0 .3890654.06815761.5197012.20447283s.1959537.31238869.1959537.52822039z" fill-rule="evenodd"/></svg>