<svg height="16" viewBox="0 0 16 16" width="16" xmlns="http://www.w3.org/2000/svg"><path d="m15.9326648 8.33165768c.0417085-.08040201.0625641-.18090325.0625641-.30150628 0-.1206056-.0208556-.2479058-.0625641-.38191087-.0417086-.04020101-.0729906-.08040202-.0938436-.12060303-.0208556-.04020101-.052135-.08710176-.0938435-.14070225l-5.338694-5.14572919c-.1807388-.16080661-.3892789-.24120606-.62563087-.24120606-.23634932 0-.44488938.08039945-.62562553.24120606-.16683685.17420351-.25025128.37520599-.25025128.60301256 0 .22780915.08341443.42881163.25025128.60301772l3.8371863 3.69849285h-12.09547985c-.2780584 0-.497026.07704958-.65690961.23115388-.15988355.1541043-.23982414.35845921-.23982414.61306475 0 .26801016.07994059.47906224.23982414.63316654.15988361.1541043.37885121.23115645.65690961.23115645h12.09547985l-3.8371863 3.67839239c-.16683685.1742053-.25025128.3752083-.25025128.6030151s.08341443.4288098.25025128.6030151c.09731905.0938029.20506458.1608039.32323924.2010051s.2189692.0603015.30238629.0603015c.09732172 0 .20506724-.0201003.32324187-.0603015.1181747-.0402012.2189692-.1072022.302389-.2010051l5.338694-5.14572787c.0417085-.04020358.0834144-.08040202.1251229-.1206056.0417112-.04020101.0625642-.08710176.0625642-.14070225z" fill-rule="evenodd" transform="matrix(-1 0 0 1 15.995228 0)"/></svg>