<svg height="16" viewBox="0 0 16 16" width="16" xmlns="http://www.w3.org/2000/svg"><path d="m15.7564391 14.630715-3.5971897-3.6014058c.4371617-.5502182.7868852-1.19421463 1.0491803-1.93200608.2622975-.73779146.3934438-1.50683352.3934438-2.30715261 0-.93786882-.1811065-1.81945486-.5433267-2.64478211-.3497284-.82532726-.8337182-1.54435058-1.4519888-2.15709398-.6182706-.612741-1.3395743-1.10042674-2.16393505-1.46306922-.82436077-.3501408-1.70491443-.5252052-2.64168498-.5252052-.93677295 0-1.81732662.1750644-2.64168738.5252052-.82436077.36264248-1.54566445.85032822-2.16393455 1.46306922-.61826986.6127434-1.1022619 1.33176672-1.45199051 2.15709398-.36221883.82532725-.54332553 1.70691329-.54332553 2.64478211 0 .95037771.1811067 1.83821579.54332553 2.66354305.34972861.82532484.83372065 1.54434814 1.45199051 2.15709154.6182701.6127434 1.33957378 1.1004292 2.16393455 1.4630717.82436076.3501384 1.70491443.5252052 2.64168738.5252052.79937708 0 1.55503153-.1313001 2.26697772-.3939027.71194619-.262605 1.36767791-.6127386 1.96721191-1.0504104l3.5971897 3.6014058c.0874333.0875347.1842313.1500585.2903987.1875733.1061675.0375149.1967207.056272.2716646.056272.0749414 0 .1654947-.0187571.2716622-.056272.1061674-.0375148.2029654-.1000386.2903963-.1875733.1623747-.1625644.2435609-.3501357.2435609-.5627198s-.0811862-.4001555-.2435609-.5627199zm-14.14519788-7.84056449c0-.71278088.13114634-1.3880375.39344262-2.02579147.27478668-.62524509.64636823-1.17545606 1.1147535-1.65064491.46838767-.47518646 1.02107429-.84407618 1.65808142-1.10668118.6245129-.27510909 1.29898117-.41266123 2.02341921-.41266123.72443563 0 1.3989039.13755214 2.0234192.41266123.63700474.262605 1.18969133.63149472 1.65807903 1.10668118.4683853.47518885.8399678 1.02539982 1.1147547 1.65064491.2622951.63775397.3934414 1.31301059.3934414 2.02579147 0 .72528737-.1311463 1.4005464-.3934414 2.02579148-.2622975.62524748-.6369999 1.18171049-1.1241218 1.66940341-.47463238.4751889-1.02419903.8472046-1.64871193 1.1160617-.6245153.2688546-1.29898357.4032831-2.0234192.4032831-.72443804 0-1.39890631-.1375545-2.02341921-.4126636-.63700713-.2751067-1.18969375-.6471248-1.65808142-1.1160592-.46838527-.4689369-.83996682-1.02227144-1.1147535-1.66002541-.26229628-.62524508-.39344262-1.30050411-.39344262-2.02579148z" fill-rule="evenodd"/></svg>