<svg xmlns="http://www.w3.org/2000/svg" width="696" height="498" viewBox="0 0 696 498"><path fill="#000000" fill-opacity=".06" fill-rule="evenodd" d="M3,340 L693,340 C694.656854,340 696,341.343146 696,343 L696,353 C696,354.656854 694.656854,356 693,356 L3,356 C1.34314575,356 2.02906125e-16,354.656854 0,353 L0,343 C-2.02906125e-16,341.343146 1.34314575,340 3,340 Z M3,428 L623,428 C624.656854,428 626,429.343146 626,431 L626,439 C626,440.656854 624.656854,442 623,442 L3,442 C1.34314575,442 2.02906125e-16,440.656854 0,439 L0,431 C-2.02906125e-16,429.343146 1.34314575,428 3,428 Z M3,370 L646,370 C647.656854,370 649,371.343146 649,373 L649,382 C649,383.656854 647.656854,385 646,385 L3,385 C1.34314575,385 2.02906125e-16,383.656854 0,382 L4.4408921e-16,373 C2.41183085e-16,371.343146 1.34314575,370 3,370 Z M3,456 L602,456 C603.656854,456 605,457.343146 605,459 L605,467 C605,468.656854 603.656854,470 602,470 L3,470 C1.34314575,470 2.02906125e-16,468.656854 0,467 L0,459 C-2.02906125e-16,457.343146 1.34314575,456 3,456 Z M3,399 L664,399 C665.656854,399 667,400.343146 667,402 L667,411 C667,412.656854 665.656854,414 664,414 L3,414 C1.34314575,414 2.02906125e-16,412.656854 0,411 L-4.4408921e-16,402 C-6.46995335e-16,400.343146 1.34314575,399 3,399 Z M3,486 L521,486 C522.656854,486 524,487.343146 524,489 L524,495 C524,496.656854 522.656854,498 521,498 L3,498 C1.34314575,498 2.02906125e-16,496.656854 0,495 L0,489 C-2.02906125e-16,487.343146 1.34314575,486 3,486 Z M3,0 L693,0 C694.656854,-3.04359188e-16 696,1.34314575 696,3 L696,301 C696,302.656854 694.656854,304 693,304 L3,304 C1.34314575,304 2.02906125e-16,302.656854 0,301 L0,3 C-2.02906125e-16,1.34314575 1.34314575,3.04359188e-16 3,0 Z"/></svg>