<svg xmlns="http://www.w3.org/2000/svg" width="1521" height="502" viewBox="0 0 1521 502"><g fill="none" fill-rule="evenodd"><path fill="#D9EB3D" d="M204.672654,5.00394769 C214.242283,-0.521080058 229.760514,-0.519465208 239.327346,5.00394769 L426.375158,112.996052 C435.944786,118.52108 443.702503,131.96107 443.702503,143.007895 L443.702503,358.992105 C443.702503,370.04216 435.941989,383.480535 426.375158,389.003948 L239.327346,496.996052 C229.757717,502.52108 214.239486,502.519465 204.672654,496.996052 L17.6248423,389.003948 C8.05521353,383.47892 0.297496631,370.03893 0.297496631,358.992105 L0.297496631,143.007895 C0.297496631,131.95784 8.05801054,118.519465 17.6248423,112.996052 L204.672654,5.00394769 Z M213.337311,40.0014059 L43.6012018,137.998594 C38.8240609,140.756678 34.9385128,147.478411 34.9385128,153.002812 L34.9385128,348.997188 C34.9385128,354.513355 38.8169308,361.239206 43.6012018,364.001406 L213.337311,461.998594 C218.114452,464.756678 225.878418,464.760794 230.662689,461.998594 L400.398798,364.001406 C405.175939,361.243322 409.061487,354.521589 409.061487,348.997188 L409.061487,153.002812 C409.061487,147.486645 405.183069,140.760794 400.398798,137.998594 L230.662689,40.0014059 C225.885548,37.2433223 218.121582,37.2392057 213.337311,40.0014059 Z"></path><path fill="#CDDC39" d="M221.481628,325.28351 L157.410461,288.229112 L157.410461,213.714357 L285.652222,139.154724 L341.984045,171.738861 C346.769383,174.506855 350.648666,181.236514 350.648666,186.756042 L350.648666,315.278225 C350.648666,320.803991 346.765377,327.525421 341.98568,330.284847 L221.481628,399.854555 L221.481628,325.28351 Z"></path><path fill="#D9EB3D" d="M101.5313,181.985901 C96.7471735,179.223236 96.7519119,174.742703 101.5313,171.984459 L213.365139,107.443741 C218.149265,104.682762 225.909231,104.685496 230.686928,107.443741 L342.48121,171.984456 C347.263644,174.745435 347.258907,179.22597 342.48121,181.985898 L222.027566,251.568261 L101.5313,181.985901 Z"></path><path fill="#FFFFFF" d="M608.027241,233.008804 L730.089684,233.008804 C739.529705,233.008804 747.535679,229.726861 754.107845,223.162876 C760.799505,216.479546 764.145285,208.423867 764.145285,198.995598 C764.145285,189.686674 760.799505,181.690667 754.107845,175.007337 C747.535679,168.324007 739.529705,164.982392 730.089684,164.982392 L608.027241,164.982392 L608.027241,233.008804 Z M608.027241,337.017608 L730.089684,337.017608 C739.529705,337.017608 747.535679,333.675993 754.107845,326.992663 C760.799505,320.428678 764.145285,312.432671 764.145285,303.004402 C764.145285,293.695478 760.799505,285.699471 754.107845,279.016141 C747.535679,272.332811 739.529705,268.991196 730.089684,268.991196 L608.027241,268.991196 L608.027241,337.017608 Z M590.10324,373 C585.084495,373 580.782778,371.269521 577.19796,367.808511 C573.732636,364.228155 572,359.931793 572,354.919296 L572,147.080704 C572,142.068207 573.732636,137.831516 577.19796,134.370506 C580.782778,130.790151 585.084495,129 590.10324,129 L730.089684,129 C749.447702,129 765.997363,135.862245 779.739166,149.586941 C793.361474,163.311636 800.172526,179.781024 800.172526,198.995598 C800.172526,219.761659 792.465283,237.126122 777.050566,251.089508 C792.465283,264.933549 800.172526,282.238341 800.172526,303.004402 C800.172526,322.338321 793.361474,338.807709 779.739166,352.413059 C765.997363,366.137755 749.447702,373 730.089684,373 L590.10324,373 Z M1104.17957,198.995598 C1104.17957,179.781024 1097.36852,163.311636 1083.74621,149.586941 C1070.00441,135.862245 1053.45475,129 1034.09673,129 L894.110285,129 C889.091539,129 884.789822,130.790151 881.205004,134.370506 C877.73968,137.831516 876.007044,142.068207 876.007044,147.080704 C876.007044,152.093202 877.73968,156.329892 881.205004,159.790902 C884.789822,163.251913 889.091539,164.982392 894.110285,164.982392 L1034.09673,164.982392 C1043.53675,164.982392 1051.54272,168.324007 1058.11489,175.007337 C1064.80655,181.690667 1068.15233,189.686674 1068.15233,198.995598 C1068.15233,208.423867 1064.80655,216.479546 1058.11489,223.162876 C1051.54272,229.726861 1043.53675,233.008804 1034.09673,233.008804 L894.110285,233.008804 C889.091539,233.008804 884.789822,234.798955 881.205004,238.37931 C877.73968,241.840321 876.007044,246.077011 876.007044,251.089508 C876.007044,255.982661 877.73968,260.219351 881.205004,263.799707 C884.789822,267.260717 889.091539,268.991196 894.110285,268.991196 L1022.08765,268.991196 C1034.8735,268.991196 1045.74728,273.526245 1054.70933,282.596478 C1063.67137,291.547367 1068.15233,302.347944 1068.15233,314.998533 L1068.15233,354.919296 C1068.15233,359.931793 1069.94471,364.228155 1073.52953,367.808511 C1076.99485,371.269521 1081.23682,373 1086.25557,373 C1091.15482,373 1095.39679,371.269521 1098.98161,367.808511 C1102.44693,364.228155 1104.17957,359.931793 1104.17957,354.919296 L1104.17957,314.998533 C1104.17957,290.771461 1095.15791,270.542757 1077.11433,254.311812 C1095.15791,240.229081 1104.17957,221.790527 1104.17957,198.995598 L1104.17957,198.995598 Z M1185.21205,367.808511 C1181.74672,364.228155 1180.01409,359.931793 1180.01409,354.919296 L1180.01409,147.080704 C1180.01409,142.068207 1181.74672,137.831516 1185.21205,134.370506 C1188.79687,130.790151 1193.09858,129 1198.11733,129 C1203.01658,129 1207.25855,130.790151 1210.84337,134.370506 C1214.30869,137.831516 1216.04133,142.068207 1216.04133,147.080704 L1216.04133,354.919296 C1216.04133,359.931793 1214.30869,364.228155 1210.84337,367.808511 C1207.25855,371.269521 1203.01658,373 1198.11733,373 C1193.09858,373 1188.79687,371.269521 1185.21205,367.808511 L1185.21205,367.808511 Z M1520.04837,147.080704 C1520.04837,142.068207 1518.31574,137.831516 1514.85041,134.370506 C1511.26559,130.790151 1507.02362,129 1502.12437,129 C1497.10563,129 1492.86366,130.790151 1489.39833,134.370506 C1485.81351,137.831516 1484.02113,142.068207 1484.02113,147.080704 L1484.02113,187.001467 C1484.02113,199.771402 1479.54018,210.63165 1470.57813,219.582539 C1461.61609,228.533427 1450.7423,233.008804 1437.95645,233.008804 L1373.96777,233.008804 C1361.30141,233.008804 1350.42763,228.533427 1341.34609,219.582539 C1332.38404,210.63165 1327.90309,199.771402 1327.90309,187.001467 L1327.90309,147.080704 C1327.90309,142.068207 1326.17045,137.831516 1322.70513,134.370506 C1319.12031,130.790151 1314.87834,129 1309.97909,129 C1304.96034,129 1300.65863,130.790151 1297.07381,134.370506 C1293.60848,137.831516 1291.87585,142.068207 1291.87585,147.080704 L1291.87585,187.001467 C1291.87585,213.257407 1302.15217,234.619874 1322.70513,251.089508 C1302.15217,267.559143 1291.87585,288.861938 1291.87585,314.998533 L1291.87585,354.919296 C1291.87585,359.931793 1293.60848,364.228155 1297.07381,367.808511 C1300.65863,371.269521 1304.96034,373 1309.97909,373 C1314.87834,373 1319.12031,371.269521 1322.70513,367.808511 C1326.17045,364.228155 1327.90309,359.931793 1327.90309,354.919296 L1327.90309,314.998533 C1327.90309,302.347944 1332.38404,291.547367 1341.34609,282.596478 C1350.42763,273.526245 1361.30141,268.991196 1373.96777,268.991196 L1437.95645,268.991196 C1450.7423,268.991196 1461.61609,273.526245 1470.57813,282.596478 C1479.54018,291.547367 1484.02113,302.347944 1484.02113,314.998533 L1484.02113,354.919296 C1484.02113,359.931793 1485.81351,364.228155 1489.39833,367.808511 C1492.86366,371.269521 1497.10563,373 1502.12437,373 C1507.02362,373 1511.26559,371.269521 1514.85041,367.808511 C1518.31574,364.228155 1520.04837,359.931793 1520.04837,354.919296 L1520.04837,314.998533 C1520.04837,288.861938 1509.77205,267.559143 1489.21909,251.089508 C1509.77205,234.619874 1520.04837,213.257407 1520.04837,187.001467 L1520.04837,147.080704 Z"></path></g></svg>
