<svg height="140" viewBox="0 0 113 140" width="113" xmlns="http://www.w3.org/2000/svg"><path d="m75.5286107 0h.2734605c6.4263216.82038148 14.3566759 5.46920984 24.3379838 13.6730246 7.930354 6.5630518 12.032262 13.9464851 12.032262 22.5604906 0 5.8794006-1.914224 12.0322617-5.742671 18.7320437-7.9303539 8.7507358-13.8097545 14.0832154-17.2280107 16.5443598-5.7426703 4.2386376-10.9384197 7.793624-15.9974388 10.2547684-5.0590191 2.5978747-11.2118801 5.7426704-19.0055042 7.6568938l-12.8526431 3.1447957c-1.2305722 5.3324796-1.7774932 9.8445774-1.7774932 13.5362944 0 7.793624 2.7346049 11.622071 8.0670845 11.622071 4.5120982 0 13.1261037-2.734605 25.4318258-9.024196 8.4772753-4.238638 17.3647412-10.5282293 27.0725887-18.4585836 11.07515-9.0241962 22.01357-16.8178203 25.978747-19.9626159h.13673c.410191 5.7426703-2.734605 14.7668666-9.434387 26.9358585-3.144796 5.60594-8.203815 12.579183-15.997439 19.962616-7.930354 7.520163-15.4505176 12.032262-21.1931879 14.630136-3.8284469 1.777493-8.7507357 3.965177-15.1770573 5.742671-4.2386376 1.093842-8.340545 1.640762-12.5791826 2.050953-7.3834333-.957111-14.7668666-3.554986-21.6033789-8.750736-6.6997821-5.059019-10.3914987-9.707847-12.1689919-13.262833-2.7346049-5.059019-4.1019074-12.168992-4.1019074-21.3299188 0-25.021635 7.5201635-47.9923163 22.2870301-69.3222347 3.0080654-4.2386377 7.793624-10.528229 15.4505178-17.50147152 7.2467031-6.56305181 15.4505178-9.43438698 23.7910628-9.43438698zm-27.6195097 73.9710631c7.5201636-3.4182561 14.4934061-7.9303543 20.5095369-13.9464851 7.6568938-7.793624 12.8526432-15.587248 16.2708993-22.8339511 1.9142235-4.1019074 3.0080654-7.246703 3.0080654-9.2976567v-.9571117c-11.6220709 4.3753678-22.6972208 14.7668665-32.4050683 31.7214171-5.1957493 9.1609264-7.3834333 14.3566758-7.3834333 15.3137875z" fill="#fff" fill-rule="evenodd" transform="translate(-14)"/></svg>